<svg width="135" height="62" viewBox="0 0 135 62" fill="none" xmlns="http://www.w3.org/2000/svg">
<path d="M13.3432 17.9822C14.7214 17.9822 15.9617 18.0825 17.0643 18.2829C18.1919 18.4834 19.2318 18.8342 20.1839 19.3353L19.357 22.0416C18.4299 21.6156 17.5153 21.3024 16.6132 21.1019C15.7362 20.9014 14.784 20.8012 13.7567 20.8012C12.6541 20.8012 11.6017 20.9641 10.5994 21.2898C9.59708 21.6156 8.70754 22.1543 7.93075 22.9061C7.17902 23.6327 6.57764 24.5975 6.1266 25.8002C5.67556 26.9779 5.45004 28.4438 5.45004 30.1978C5.45004 33.2298 6.13913 35.5351 7.5173 37.1138C8.89547 38.6924 10.8374 39.4817 13.3432 39.4817C14.2954 39.4817 15.1098 39.4316 15.7863 39.3314C16.4879 39.2311 17.1645 39.0557 17.816 38.8051V32.2275H13.3432V29.5213H21.0484V40.9476C20.0461 41.3485 18.9311 41.6868 17.7032 41.9624C16.4754 42.213 15.0221 42.3383 13.3432 42.3383C11.7145 42.3383 10.1859 42.0752 8.75765 41.549C7.35442 41.0228 6.1266 40.246 5.07418 39.2186C4.02175 38.1912 3.19485 36.9258 2.59347 35.4224C1.99208 33.9189 1.69139 32.1774 1.69139 30.1978C1.69139 28.2183 1.97956 26.4643 2.55588 24.9357C3.15727 23.4072 3.97164 22.1293 4.999 21.1019C6.02637 20.0745 7.25419 19.2978 8.68248 18.7715C10.1108 18.2453 11.6643 17.9822 13.3432 17.9822ZM32.8568 18.3205H35.9389L45.3731 42H41.7648L39.1713 35.4224H29.4364L26.8805 42H23.3098L32.8568 18.3205ZM30.3761 32.6785H38.1565L36.5778 28.5816C36.1518 27.5041 35.7634 26.4643 35.4126 25.4619C35.0618 24.4596 34.711 23.4323 34.3602 22.3799H34.285C33.9342 23.4323 33.5709 24.4471 33.195 25.4244C32.8192 26.4016 32.4182 27.454 31.9923 28.5816L30.3761 32.6785ZM61.2545 18.3205V21.2523H53.85V42H50.392V21.2523H43.1378V18.3205H61.2545ZM64.5988 42V18.3205H68.0568V28.2809H79.2952V18.3205H82.7531V42H79.2952V31.2127H68.0568V42H64.5988ZM88.7144 18.3205H102.997V21.1771H92.1724V28.2809H102.02V31.0999H92.1724V39.1434H103.11V42H88.7144V18.3205ZM107.544 18.3205H115.25C116.477 18.3205 117.555 18.4959 118.482 18.8467C119.434 19.1975 120.224 19.6862 120.85 20.3126C121.476 20.939 121.953 21.6908 122.278 22.5678C122.604 23.4197 122.767 24.3594 122.767 25.3868C122.767 26.2888 122.629 27.1032 122.353 27.8299C122.078 28.5566 121.714 29.1955 121.263 29.7468C120.812 30.273 120.286 30.7366 119.685 31.1375C119.108 31.5134 118.52 31.8266 117.918 32.0772L124.158 42H120.286L114.686 32.7161H110.814V42H107.544V18.3205ZM110.814 29.8971H113.671C114.448 29.8971 115.162 29.822 115.813 29.6716C116.49 29.4962 117.066 29.2457 117.542 28.9199C118.044 28.5691 118.432 28.1181 118.708 27.5668C119.008 27.0155 119.159 26.3515 119.159 25.5747C119.159 24.0462 118.733 22.9186 117.881 22.1919C117.054 21.4652 115.838 21.1019 114.235 21.1019H110.814V29.8971Z" fill="white"/>
<rect x="130" y="37" width="5" height="5" fill="white"/>
</svg>
